<svg height="512" viewBox="0 0 59 36" width="512" xmlns="http://www.w3.org/2000/svg"><g id="011---USA-" fill="none" transform="translate(-1)"><path id="Shape" d="m58.53 1.35c-.4656531-.56051653-1.0735814-.98537549-1.76-1.23-.7160323-.22700974-1.4895767.11061461-1.81.79-.17.49 0 1-.05 1.55-.27 1.79-3.06 2.64-4.22 3.78-1.1641364 1.24922201-2.4174306 2.41227909-3.75 3.48-1 .73-2 1.42-2.89.57s-.71-2.53-1.54-3.35c-.8673334-.88952832-1.923296-1.57299925-3.09-2-5.13-2.07-10.83-1.82-16.42-2.04-5.4147239-.23552608-10.783893-1.09794888-16-2.57-1.58132828-.37968538-3.24949595-.07076544-4.59.85-.78.86-.64 2.94-.78 4-.63 4.46-1.34 9.66.77 13.82 1.57 3.15 4.47 5.07 7.7 6.63 1.5318031.8359085 3.1852239 1.4264159 4.9 1.75 2.34.32 4.32.09 5.92 1.92.5.59.7 1.47 1.51 1.74.4456755.0472685.8962939-.0039381 1.32-.15 1.1675037-.1675342 2.3293118.3397887 3 1.31.66 1 1.78 4.81 3.41 2.6.56-.76 1-1.87 1.42-2.36 1.4804362-1.8205288 3.9054226-2.5803054 6.16-1.93 1.27.42 1.47.4 2.2-.39 2.81-3.18 4.37-1.55 5.56-1.35.6.1 1.35-.17 1.43-.77.71 1.73 3 6.07 4.91 5.4.7812442-.3942501 1.1685532-1.2909548.92-2.13-.3-1.39-1.37-2.17-1.65-4.27-.3379326-2.3468314.4995758-4.7098015 2.24-6.32.94-.83 2.35-1.73 2.27-3-.09-1.88-3.24-2.69-.34-6.65 1.54-2.22 1.47-2.29 1.77-4 .0670723-.58828828.2839907-1.14952174.63-1.63.77-1.01 3.18-1.63.85-4.05z" fill="#e64c3c"/><g fill="#ecf0f1"><path id="Shape" d="m33.32 31c-2.1 1.11-2.21 2.48-3.18 3.8-1.63 2.21-2.75-1.59-3.41-2.6-.3926313-.5722067-.9669949-.9950511-1.63-1.2z"/><path id="Shape" d="m51.09 27h-37.76c-2.7121563-.9546235-5.26943462-2.3023328-7.59-4h45.92c-.5615035 1.2534533-.7590288 2.6395959-.57 4z"/><path id="Shape" d="m55.13 19h-52.73c-.61640452-1.2593564-1.02501621-2.6101388-1.21-4h53.08c.49 1.18 2.14 2.35.86 4z"/><path id="Shape" d="m45 10.68v.32h-22v-4h19.56c.79.95.6 2.46 1.49 3.29.2503906.2538759.5934524.3947118.95.39z"/></g><path id="Shape" d="m23 2.9v12.1h-21.81c-.3100527-3.2704708-.16872794-6.5680484.42-9.8.14-1.08 0-3.16.78-4 1.34056191-.93824591 3.01969012-1.25513127 4.61-.87 5.2173358 1.46647492 10.5858555 2.32879339 16 2.57z" fill="#285680"/><path id="Shape" d="m57 7c-.29 1.68-.23 1.76-1.77 4h-10.23v-.32c1.36 0 4-2.73 5-3.68z" fill="#ecf0f1"/><path id="Shape" d="m11.37 5.24c.64 1.38.63 1.49.91 1.53l1.37.21c.1573619.02997935.2850133.1449476.3312369.29832588.0462236.15337827.0033553.31973601-.1112369.43167412-1 1.06-1.15 1.09-1.11 1.38l.24 1.42c.0334172.1552946-.0258761.3159178-.1521808.4122519-.1263047.096334-.2968895.1110416-.4378192.0377481-1.19-.66-1.33-.82-1.6-.67l-1.23.71c-.14958616.0804819-.33330976.0603901-.4619655-.05052-.12865575-.1109101-.17559805-.2896683-.1180345-.44948.25-1.51.32-1.59.12-1.8l-1-1c-.09848558-.11423292-.12992088-.2717148-.08283996-.41500456s.16579438-.25143705.31283996-.28499544c1.44-.22 1.55-.18 1.67-.44l.62-1.29c.0583393-.14670857.1975168-.24537552.3552661-.25185837.1577493-.00648284.3045535.08043143.3747339.22185837z" fill="#ecf0f1"/></g></svg>