<svg id="Layer_1" enable-background="new 0 0 512 512" height="512" viewBox="0 0 512 512" width="512" xmlns="http://www.w3.org/2000/svg"><g><path d="m62.792 430.769 330.667 31.125c58.673-44.762 96.545-115.401 96.545-194.896 0-135.311-109.691-245.002-245.002-245.002s-245.002 109.691-245.002 245.002c0 62.964 23.76 120.373 62.792 163.771z" fill="#4ce088"/><g><path d="m161.523 431.898c12.357 9.596 27.607 14.809 43.313 14.809s30.955-5.212 43.313-14.809c9.132-7.091 18.873-16.736 27.406-28.882-2.402-.698-4.831-1.357-7.291-1.973-2.633-.659-4.946-2.243-6.44-4.35-6.886-9.715-8.793-24.733-9.168-35.624-4.831 5.626-9.9 10.332-14.744 14.093-19.426 15.086-46.751 15.066-66.153 0-4.844-3.762-9.913-8.468-14.743-14.093-.384 11.133-2.365 26.58-9.632 36.265-1.24 1.652-3.15 3.003-5.441 3.57-2.639.653-5.245 1.361-7.825 2.113 8.532 12.145 18.274 21.79 27.405 28.881z" fill="#fcad6d"/></g><path d="m203.786 386.448c-11.336-.22-22.614-3.977-32.026-11.286-4.844-3.762-9.913-8.468-14.743-14.093-.384 11.133-2.365 26.58-9.632 36.265-1.24 1.652-3.15 3.003-5.441 3.57-2.639.653-5.245 1.361-7.825 2.113 8.532 12.145 18.274 21.79 27.405 28.881 4.551 3.534 9.497 6.469 14.712 8.773 19.042-14.916 25.425-40.097 27.55-54.223z" fill="#fd995b"/><g><path d="m188.843 134.815c-48.027 6.544-52.591 33.773-52.613 43.764-.005 2.095-1.165 4.037-3.049 4.953-24.982 12.153-11.513 70.725-11.513 70.725 2.509.167 6.271 2.32 8.23 3.269.479-2.985 1.262-5.923 2.368-8.763.842-2.165 1.896-4.351 3.212-6.417 2.285-3.584 3.325-7.812 3.015-12.039-.898-12.219-1.602-35.16 14.527-42.417 13.664-6.148 30.426-2.588 41.115.966 6.942 2.308 14.461 2.308 21.403 0 10.689-3.555 27.45-7.115 41.115-.966 16.083 7.237 15.422 30.061 14.535 42.312-.309 4.259.704 8.531 3.006 12.143 1.359 2.132 2.438 4.393 3.294 6.626 1.064 2.776 1.821 5.643 2.288 8.555 2.469-1.196 7.134-3.636 10.152-3.209.37-12.807 1.552-26.614 1.552-26.614 14.231-69.707-50.926-99.933-102.637-92.888z" fill="#2a428c"/><path d="m188.843 134.815c-48.027 6.544-52.591 33.773-52.613 43.764-.005 2.095-1.165 4.037-3.049 4.953-24.982 12.153-11.513 70.725-11.513 70.725 2.509.167 6.271 2.32 8.23 3.269.479-2.985 1.262-5.923 2.368-8.763.842-2.165 1.896-4.351 3.212-6.417 2.285-3.584 3.325-7.812 3.015-12.039-.898-12.219-1.602-35.16 14.527-42.417 13.664-6.148 30.426-2.588 41.115.966 2.924.972 5.951 1.51 8.994 1.663-.466-.8-.964-1.594-1.521-2.377-20.604-28.959 8.036-50.061 13.564-53.749-8.865-.882-17.781-.743-26.329.422z" fill="#1c2e7a"/></g><path d="m294.188 255.98c-3.741-3.428-11.191-1.69-14.413.409.706 4.395.746 8.891.136 13.332l-3.802 27.689c0 2.232-.07 4.422-.2 6.574 9.27 2.796 13.875-5.526 14.651-11.238.334-2.459.88-4.882 1.637-7.246 2.467-7.703 11.363-20.931 1.991-29.52z" fill="#fcad6d"/><path d="m115.484 255.98c3.741-3.428 11.192-1.69 14.413.409-.706 4.395-.746 8.891-.136 13.332l3.802 27.689c0 2.232.07 4.422.2 6.574-9.27 2.796-13.875-5.526-14.651-11.238-.334-2.459-.88-4.882-1.637-7.246-2.467-7.703-11.363-20.931-1.991-29.52z" fill="#fd995b"/><path d="m278.623 247.834c-.856-2.233-1.934-4.493-3.293-6.626-2.302-3.612-3.315-7.884-3.006-12.143.887-12.251.411-36.212-15.672-43.449-13.664-6.148-30.424-2.589-41.113.966-6.941 2.309-14.465 2.309-21.406 0-10.689-3.554-27.449-7.114-41.113-.966-16.129 7.257-16.562 31.335-15.664 43.554.311 4.227-.73 8.455-3.014 12.039-1.316 2.066-2.37 4.252-3.212 6.416-2.733 7.02-3.529 14.634-2.506 22.089l3.802 27.695c0 39.816 21.254 66.879 39.333 80.918 9.437 7.328 21.083 11.309 33.076 11.309 11.994 0 23.64-3.98 33.076-11.309 18.079-14.039 39.333-41.102 39.333-80.918l3.802-27.689c1.015-7.382.247-14.921-2.423-21.886z" fill="#f9ba8f"/><g><path d="m224.561 378.328c-18.079-14.039-39.333-41.102-39.333-80.918l-3.803-27.695c-1.024-7.455-.227-15.068 2.506-22.089.842-2.164 1.896-4.35 3.212-6.416 2.285-3.584 3.325-7.812 3.014-12.039-.812-11.048-.533-31.789 11.45-41.027-2.529-.242-5.039-.751-7.475-1.561-10.689-3.554-27.449-7.114-41.113-.966-16.129 7.257-16.562 31.335-15.664 43.554.311 4.227-.73 8.455-3.014 12.039-1.316 2.066-2.37 4.252-3.212 6.416-2.733 7.02-3.529 14.634-2.506 22.089l3.802 27.695c0 39.816 21.254 66.879 39.333 80.918 9.437 7.328 21.083 11.309 33.076 11.309 9.301 0 18.387-2.403 26.401-6.895-2.319-1.302-4.555-2.769-6.674-4.414z" fill="#fcad6d"/></g><path d="m338.349 429.656c-6.17-.505-9.454-2.898-16.727-6.999-15.149-8.543-30.837-15.356-47.929-20.148-8.348 12-17.928 21.505-26.898 28.47-11.971 9.296-26.744 14.346-41.959 14.346s-29.988-5.049-41.959-14.346c-8.972-6.967-18.555-16.475-26.904-28.478-17.021 4.781-32.816 11.637-47.924 20.156-7.273 4.101-10.556 6.495-16.727 6.999-2.963.242-5.801.621-8.53 1.113 44.849 49.865 109.863 81.231 182.21 81.231 55.816 0 107.261-18.678 148.457-50.106-10.723-16.809-27.86-30.011-55.11-32.238z" fill="#3c58a0"/><path d="m166.607 446.706c4.046-1.976 7.665-4.368 10.9-7.06-5.191-2.256-10.111-5.158-14.631-8.668-8.972-6.967-18.555-16.475-26.904-28.478-17.021 4.781-32.816 11.637-47.924 20.156-7.273 4.101-10.556 6.495-16.727 6.999-2.963.242-5.801.621-8.53 1.113 17.005 18.907 36.914 35.147 59.018 48.033 5.886-15.152 19.32-19.65 44.798-32.095z" fill="#2a428c"/><path d="m306.207 68.8c0-15.928 13.032-28.96 28.96-28.96h137.883v-10.88c0-15.928-13.032-28.96-28.96-28.96h-149.724c-15.928 0-28.96 13.032-28.96 28.96v118.88c0 15.928 13.032 28.96 28.96 28.96h11.84v-108z" fill="#4fabf7"/><path d="m377 0h-82.634c-15.928 0-28.96 13.032-28.96 28.96v118.88c0 15.928 13.032 28.96 28.96 28.96h11.84v-108c0-15.928 13.032-28.96 28.96-28.96h41.219c.366-1.193.614-1.849.614-1.849-20.545-20.545.001-37.991.001-37.991z" fill="#1886ea"/><path d="m483.04 37.992h-149.722c-15.928 0-28.96 13.032-28.96 28.96v118.88c0 15.928 13.032 28.96 28.96 28.96 4.071 0 6.328 4.676 3.838 7.897-2.652 3.432-5.626 6.631-8.927 9.539-6.159 5.425-2.694 16.547 5.116 16.523 19.85-.062 38.453-10.137 51.114-26.548 3.558-4.612 8.974-7.41 14.799-7.41h83.782c15.928 0 28.96-13.032 28.96-28.96v-118.882c0-15.928-13.032-28.959-28.96-28.959z" fill="#e9efff"/><path d="m333.318 37.992c-15.928 0-28.96 13.032-28.96 28.96v118.88c0 15.928 13.032 28.96 28.96 28.96 4.071 0 6.328 4.676 3.838 7.897-2.652 3.432-5.626 6.631-8.927 9.539-6.159 5.425-2.694 16.547 5.116 16.523 19.85-.062 38.453-10.137 51.114-26.548 3.558-4.612 8.974-7.41 14.799-7.41h37.409c-45-26.292-25.226-72.619-25.226-72.619l-5.881-26.529c-47.476-27.835-28.56-77.653-28.56-77.653z" fill="#bec8f7"/><circle cx="358.084" cy="129.559" fill="#1886ea" r="13.917"/><circle cx="405.56" cy="129.559" fill="#1886ea" r="13.917"/><circle cx="453.035" cy="129.559" fill="#4fabf7" r="13.917"/><g><path d="m95.72 349.921c8.821-18.641-1.322-40.099-8.318-59.499-11.279-31.28-14.224-65.965-5.491-98.048s29.666-61.226 58.768-77.309c14.95-8.262 31.664-13.022 46.415-21.636s28.028-22.676 28.925-39.734c.558-10.622-3.999-20.586-11.279-28.389-116.152 19.208-204.74 120.096-204.74 241.692 0 37.547 8.453 73.115 23.551 104.918 20.527 6.958 43.622 5.566 60.394-7.734 4.873-3.864 9.115-8.639 11.775-14.261z" fill="#5efc9e"/></g><g><path d="m428.834 428.941c36.734-41.659 59.519-95.901 61.073-155.434-17.514-11.654-39.682-16.93-60.92-15.767-31.11 1.703-60.42 15.397-86.519 32.413-10.558 6.883-20.908 14.511-28.408 24.639-7.5 10.129-11.885 23.17-9.252 35.495 3.99 18.678 22.425 30.678 40.541 36.727s37.708 8.401 54.248 17.952c10.945 6.32 19.883 15.414 29.237 23.975z" fill="#5efc9e"/></g><path d="m337.827 493.786c-3.108-6.911-7.024-12.185-10.781-16.081-4.647-4.818-12.809-1.463-12.809 5.231v19.129c8.043-2.366 15.914-5.133 23.59-8.279z" fill="#2a428c"/></g></svg>