<svg id="_x33_0" enable-background="new 0 0 64 64" height="512" viewBox="0 0 64 64" width="512" xmlns="http://www.w3.org/2000/svg"><g><g><g><path d="m24.82 4.73c.65-.47 1.44-.73 2.27-.73 1.08 0 2.06.44 2.77 1.14.7.71 1.14 1.69 1.14 2.77 0 2.23-1.78 4.04-4 4.09-.03 0-.06 0-.09 0h-5.91c-1.39 0-2.61-.7-3.33-1.78l-1.33.22c-1.8.3-3.15 1.77-3.32 3.56h-1.02c-.9 0-1.7.39-2.24 1.02l-.01-.01-.59-2.38c-.11-.42-.16-.85-.16-1.28 0-1.27.44-2.44 1.2-3.37.76-.92 1.82-1.58 3.06-1.83l.32-.07h.01c.92-2.41 3.25-4.08 5.93-4.08 1.05 0 2.07.26 2.98.72.91.47 1.71 1.16 2.32 2.01z" fill="#b27946"/></g><g><path d="m10 48v6c-.69 0-1.36-.09-2-.25-3.45-.89-6-4.02-6-7.75v-.86c0-5.99 3.26-11.31 8.2-14.14l.8 4h4.49c.04.13.07.27.11.4l-3.6 3.6c.15.39.33.76.52 1.12v.01c-.31.16-.52.49-.52.87v7z" fill="#4fc1e9"/></g><g><path d="m38.21 38.37 1.79-8.37h6v13.87c0 1.69-.68 3.23-1.79 4.34s-2.65 1.79-4.34 1.79c-1.82 0-3.54-.81-4.71-2.21l-3.16-3.79v18h-24v-8.25c.64.16 1.31.25 2 .25h2v3c0 .55.45 1 1 1h12c.55 0 1-.45 1-1v-14.72c.84-.96 1.52-2.07 2-3.28l-3.6-3.6c.04-.13.07-.27.11-.4h4.49l.84-4.2c3.47 1.68 6.4 4.33 8.37 7.57z" fill="#4fc1e9"/></g><g><path d="m15.13 32.95c.07.69.2 1.38.36 2.05h-4.49l-.8-4v-.01c1.46-.84 3.08-1.46 4.8-1.81v1.75c0 .68.04 1.35.13 2.02z" fill="#3bafda"/></g><g><path d="m17.25 39.37c.1.21.23.42.36.63h-1.61-3c-.17 0-.34.04-.48.13v-.01c-.19-.36-.37-.73-.52-1.12l3.6-3.6c.37 1.39.93 2.72 1.65 3.97z" fill="#3bafda"/></g><g><path d="m22.75 39.37c.72-1.25 1.28-2.58 1.65-3.97l3.6 3.6c-.48 1.21-1.16 2.32-2 3.28v-1.28c0-.55-.45-1-1-1h-2.61c.13-.21.26-.42.36-.63z" fill="#3bafda"/></g><g><path d="m24.87 32.95c.09-.67.13-1.34.13-2.02v-1.76c1.69.33 3.32.88 4.84 1.62v.01l-.84 4.2h-4.49c.16-.67.29-1.36.36-2.05z" fill="#3bafda"/></g><g><path d="m48 26v.34c0 1.06-.42 2.08-1.17 2.83l-.83.83h-6l-.83-.83c-.75-.75-1.17-1.77-1.17-2.83v-2.34c0-.55.22-1.05.59-1.41.36-.37.86-.59 1.41-.59 1.1 0 2 .9 2 2 0 .55.22 1.05.59 1.41.36.37.86.59 1.41.59z" fill="#f0d0b4"/></g><g><path d="m48 24v2h-4c-.55 0-1.05-.22-1.41-.59-.37-.36-.59-.86-.59-1.41 0-1.1.9-2 2-2h2c1.1 0 2 .9 2 2z" fill="#f0d0b4"/></g><g><path d="m44 18v4c-1.1 0-2 .9-2 2 0-1.1-.9-2-2-2v-4c0-1.1.9-2 2-2 .55 0 1.05.22 1.41.59.37.36.59.86.59 1.41z" fill="#f0d0b4"/></g><g><path d="m28 14c1.66 0 3 1.34 3 3 0 .83-.34 1.58-.88 2.12s-1.29.88-2.12.88h-1v-6z" fill="#f0d0b4"/></g><g><path d="m27 20v1c0 2.34-1.61 4.31-3.79 4.85-.39.1-.79.15-1.21.15h-4c-.42 0-.82-.05-1.21-.15-2.18-.54-3.79-2.51-3.79-4.85v-1-5.61c0-.13.01-.26.02-.39.17-1.79 1.52-3.26 3.32-3.56l1.33-.22c.72 1.08 1.94 1.78 3.33 1.78h5.91.09v2z" fill="#f0d0b4"/></g><g><path d="m26 42.28v14.72c0 .55-.45 1-1 1h-12c-.55 0-1-.45-1-1v-3h3c1.66 0 3-1.34 3-3 0-.83-.34-1.58-.88-2.12s-1.29-.88-2.12-.88h-3v-7c0-.38.21-.71.52-.87.14-.09.31-.13.48-.13h3v3c0 .55.45 1 1 1h4c.55 0 1-.45 1-1v-3h.39 2.61c.55 0 1 .45 1 1z" fill="#e6e9ed"/></g><g><path d="m25 29.17v1.76c0 .68-.04 1.35-.13 2.02l-2.37-.95-2.5-1 4-2c.34.05.67.1 1 .17z" fill="#ccd1d9"/></g><g><path d="m22.5 32 2.37.95c-.07.69-.2 1.38-.36 2.05-.04.13-.07.27-.11.4-.37 1.39-.93 2.72-1.65 3.97l-1.75-5.37z" fill="#e6e9ed"/></g><g><path d="m23.21 25.85.79 3.15-4 2-4-2 .79-3.15c.39.1.79.15 1.21.15h4c.42 0 .82-.05 1.21-.15z" fill="#f0d0b4"/></g><g><path d="m21 34 1.75 5.37c-.1.21-.23.42-.36.63h-.39-4.39c-.13-.21-.26-.42-.36-.63l1.75-5.37z" fill="#fcd770"/></g><g><path d="m22.5 32-1.5 2h-2l-1.5-2 2.5-1z" fill="#ffc729"/></g><g><path d="m22 40v3c0 .55-.45 1-1 1h-4c-.55 0-1-.45-1-1v-3h1.61z" fill="#b4dd7f"/></g><g><path d="m20 31-2.5 1-2.37.95c-.09-.67-.13-1.34-.13-2.02v-1.75c.33-.07.66-.13 1-.18z" fill="#ccd1d9"/></g><g><path d="m17.5 32 1.5 2-1.75 5.37c-.72-1.25-1.28-2.58-1.65-3.97-.04-.13-.07-.27-.11-.4-.16-.67-.29-1.36-.36-2.05z" fill="#e6e9ed"/></g><g><path d="m17.12 48.88c.54.54.88 1.29.88 2.12 0 1.66-1.34 3-3 3h-3-2v-6h2 3c.83 0 1.58.34 2.12.88z" fill="#f0d0b4"/></g><g><path d="m13.02 14c-.01.13-.02.26-.02.39v5.61h-1c-.83 0-1.58-.34-2.12-.88s-.88-1.29-.88-2.12c0-.76.29-1.45.76-1.98.54-.63 1.34-1.02 2.24-1.02z" fill="#f0d0b4"/></g></g><g><path d="m46 21h-1v-3c0-1.654-1.346-3-3-3s-3 1.346-3 3v3.184c-1.161.414-2 1.514-2 2.816v2.343c0 1.335.521 2.591 1.465 3.535l.443.444-1.196 5.582c-3.167-4.057-7.819-6.877-12.9-7.778l-.408-1.632c2.114-.929 3.596-3.04 3.596-5.494 2.206 0 4-1.794 4-4s-1.794-4-4-4v-.124c2.284-.502 4-2.535 4-4.967 0-2.707-2.202-4.909-4.908-4.909-.713 0-1.4.162-2.029.447-1.413-1.546-3.428-2.447-5.547-2.447-2.889 0-5.454 1.716-6.648 4.225-2.83.665-4.868 3.198-4.868 6.122 0 .517.063 1.032.188 1.529l.48 1.919c-.42.632-.668 1.39-.668 2.205 0 2.206 1.794 4 4 4 0 2.454 1.482 4.565 3.596 5.494l-.412 1.645c-8.13 1.496-14.184 8.677-14.184 17.004v.857c0 3.91 2.51 7.236 6 8.475v8.525h26v-16.237l1.394 1.672c1.359 1.63 3.355 2.565 5.477 2.565 3.931 0 7.129-3.198 7.129-7.129v-13.457l.535-.536c.944-.944 1.465-2.2 1.465-3.535v-2.343c0-1.654-1.346-3-3-3zm-4-4c.552 0 1 .449 1 1v3.184c-.374.133-.711.336-1 .596-.289-.261-.626-.463-1-.596v-3.184c0-.551.448-1 1-1zm-15.47 22.728c-.367-.441-.913-.728-1.53-.728h-.914c.283-.567.541-1.145.763-1.737l1.962 1.962c-.082.175-.189.334-.281.503zm-8.107-.728 1.303-4h.549l1.303 4zm3.688-4.815.729-.971.93.372c-.178 1.06-.459 2.098-.844 3.1zm-1.194-1.741-.417.556h-1l-.417-.556.917-.367zm-3.757.769.729.971-.815 2.501c-.385-1.002-.666-2.04-.844-3.1zm-.16 7.787h4v2h-4zm7-10.882v.811c0 .196-.013.391-.021.587l-1.541-.616zm-7.979 1.397c-.008-.195-.021-.39-.021-.586v-.811l1.561.781zm-1.748 2.485h-2.454l-.491-2.455c.847-.438 1.74-.797 2.672-1.073v.457c0 1.035.099 2.061.273 3.071zm1.641 5h-2.5l1.737-1.737c.221.592.479 1.17.763 1.737zm-.914 10c1.103 0 2 .897 2 2s-.897 2-2 2h-4v-4zm-2 6h2c2.206 0 4-1.794 4-4s-1.794-4-4-4h-2v-6h2v2c0 1.103.897 2 2 2h4c1.103 0 2-.897 2-2v-2h2v16h-12zm13-24.071v-.499c.925.247 1.829.566 2.704.949l-.524 2.621h-2.453c.174-1.01.273-2.036.273-3.071zm4-13.929c0 1.103-.897 2-2 2v-4c1.103 0 2 .897 2 2zm-20 0c0-1.103.897-2 2-2v4c-1.103 0-2-.897-2-2zm2.214-4h-.214c-.582 0-1.132.131-1.631.356l-.241-.966c-.085-.339-.128-.69-.128-1.043 0-1.577.871-2.986 2.188-3.735l-.178 1.247 1.98.282.22-1.54c.375-2.623 2.656-4.601 5.306-4.601 1.482 0 2.888.607 3.915 1.645-.151.17-.294.348-.422.541l-.84 1.26 1.664 1.109.84-1.26c.54-.811 1.444-1.295 2.419-1.295 1.603 0 2.908 1.305 2.908 2.908 0 1.705-1.387 3.092-3.092 3.092h-5.908c-1.654 0-3-1.346-3-3h-2c0 .506.098.986.239 1.447l-.06.01c-1.945.323-3.444 1.732-3.965 3.543zm1.786 8v-6.611c0-1.473 1.055-2.717 2.507-2.959l.767-.128c.917 1.033 2.239 1.698 3.726 1.698h5v8c0 2.206-1.794 4-4 4h-4c-2.206 0-4-1.794-4-4zm4 6h4c.156 0 .31-.012.463-.023l.372 1.488-2.835 1.417-2.835-1.417.372-1.488c.153.011.307.023.463.023zm-15 19v-.857c0-5.088 2.56-9.691 6.51-12.493l.67 3.35h3.405l-2.759 2.759.245.612c.074.185.169.363.253.545-.203.313-.324.684-.324 1.084v6h-1c-.552 0-1-.448-1-1v-7h-2v7c0 1.302.839 2.402 2 2.816v4.104c-3.386-.488-6-3.401-6-6.92zm36.871 3c-1.526 0-2.963-.673-3.94-1.846l-2.931-3.517v-4.637h-2v22h-22v-6.059c.329.037.662.059 1 .059h1v2c0 1.103.897 2 2 2h12c1.103 0 2-.897 2-2v-14.367c.8-.985 1.454-2.076 1.929-3.26l.245-.612-2.76-2.761h3.406l.737-3.689c2.648 1.518 4.932 3.663 6.585 6.255l-1.119 5.223 1.955.42 2.83-13.209h4.192v12.871c0 2.828-2.301 5.129-5.129 5.129zm6.25-20.536-.535.536h-5.171l-.535-.536c-.56-.558-.88-1.331-.88-2.121v-2.343c0-.551.448-1 1-1s1 .449 1 1c0 1.654 1.346 3 3 3h2.926c-.125.55-.404 1.063-.805 1.464zm.879-3.464h-3c-.552 0-1-.449-1-1s.448-1 1-1h2c.552 0 1 .449 1 1z"/><path d="m18 23h2c2.206 0 4-1.794 4-4h-2c0 1.103-.897 2-2 2h-2z"/><circle cx="17" cy="16" r="1"/><circle cx="23" cy="16" r="1"/><path d="m47.707 2.707-1.414-1.414-3.293 3.293-1.293-1.293-1.414 1.414 2.707 2.707z"/><path d="m49 5h14v2h-14z"/><path d="m47.707 8.707-1.414-1.414-3.293 3.293-1.293-1.293-1.414 1.414 2.707 2.707z"/><path d="m49 11h14v2h-14z"/><path d="m61 17h2v2h-2z"/><path d="m49 17h10v2h-10z"/></g></g></svg>