<svg id="Layer_1" enable-background="new 0 0 512 512" height="512" viewBox="0 0 512 512" width="512" xmlns="http://www.w3.org/2000/svg"><g><path d="m245.002 21.996c-135.311 0-245.002 109.691-245.002 245.002 0 60.264 21.771 115.434 57.86 158.107l318.489 48.739c68.323-43.476 113.656-119.864 113.656-206.846-.001-135.311-109.692-245.002-245.003-245.002z" fill="#816ae2"/><path d="m266.508 268.031c.177 9.72-.783 19.674-1.822 26.311-4.905 21.617-11.986 40.437-21.043 55.938-4.107 7.028-9.231 13.417-15.23 18.989l-.768.714v4.841c0 5.018 1.95 9.659 5.27 13.933 18.586-1.124 34.387-4.888 46.842-9.177 14.992-5.163 21.554-22.935 13.363-36.512-19.287-31.969-16.413-75.037-16.413-75.037z" fill="#2a428c"/><path d="m293.12 343.068c-1.809-2.999-3.424-6.096-4.864-9.246-22.448 13.022-31.418-5.429-31.418-5.429s-.58-.85-1.643-2.432c-3.392 8.816-7.246 16.947-11.553 24.318-4.107 7.028-9.231 13.417-15.23 18.989l-.768.714v4.841c0 5.018 1.95 9.659 5.27 13.933 18.586-1.124 34.387-4.888 46.842-9.177 14.993-5.162 21.555-22.934 13.364-36.511z" fill="#1c2e7a"/><path d="m104.19 379.58c12.454 4.288 28.256 8.053 46.841 9.177 3.321-4.274 5.271-8.915 5.271-13.933v-5.946l-.735-.71c-5.49-5.3-10.221-11.318-14.06-17.888-9.063-15.511-16.141-34.325-21.039-55.917-1.073-6.261-2.042-16.379-1.827-26.333h-11.401s2.874 43.068-16.413 75.037c-8.191 13.578-1.628 31.35 13.363 36.513z" fill="#1c2e7a"/><g><path d="m57.119 287.95c-10.227-49.011 5.822-102.715 41.262-138.08 19.157-19.117 42.986-32.694 65.557-47.627 14.409-9.533 29.948-22.68 29.138-39.938-.484-10.329-6.948-19.368-13.899-27.025-1.047-1.154-2.115-2.288-3.196-3.411-101.702 29.807-175.981 123.787-175.981 235.129 0 36.464 7.983 71.058 22.273 102.152 3.353-.514 6.663-1.287 9.897-2.369 13.395-4.482 25.29-14.682 29.594-28.135 5.24-16.375-1.133-33.865-4.645-50.696z" fill="#9181f2"/></g><g><path d="m465.826 260.536c-23.159-8.193-48.632-7.743-72.77-3.178-19.721 3.73-40.713 11.535-50.471 29.074-6.577 11.82-6.853 26.031-6.379 39.549.829 23.649 4.681 49.702 22.715 65.024 17.299 14.697 43.959 15.987 58.909 33.067 2.534 2.894 4.686 6.199 6.902 9.412 39.166-42.258 63.609-98.348 65.183-160.129-7.322-5.448-15.525-9.79-24.089-12.819z" fill="#9181f2"/></g><path d="m306.207 68.8c0-15.928 13.032-28.96 28.96-28.96h137.883v-10.88c0-15.928-13.032-28.96-28.96-28.96h-149.724c-15.928 0-28.96 13.032-28.96 28.96v118.88c0 15.928 13.032 28.96 28.96 28.96h11.84v-108z" fill="#4fabf7"/><path d="m377 0h-82.634c-15.928 0-28.96 13.032-28.96 28.96v118.88c0 15.928 13.032 28.96 28.96 28.96h11.84v-108c0-15.928 13.032-28.96 28.96-28.96h41.219c.366-1.193.614-1.849.614-1.849-20.545-20.545.001-37.991.001-37.991z" fill="#1886ea"/><path d="m483.04 37.992h-149.722c-15.928 0-28.96 13.032-28.96 28.96v118.88c0 15.928 13.032 28.96 28.96 28.96 4.071 0 6.328 4.676 3.838 7.897-2.652 3.432-5.626 6.631-8.927 9.539-6.159 5.425-2.694 16.547 5.116 16.523 19.85-.062 38.453-10.137 51.114-26.548 3.558-4.612 8.974-7.41 14.799-7.41h83.782c15.928 0 28.96-13.032 28.96-28.96v-118.882c0-15.928-13.032-28.959-28.96-28.959z" fill="#e9efff"/><path d="m333.318 37.992c-15.928 0-28.96 13.032-28.96 28.96v118.88c0 15.928 13.032 28.96 28.96 28.96 4.071 0 6.328 4.676 3.838 7.897-2.652 3.432-5.626 6.631-8.927 9.539-6.159 5.425-2.694 16.547 5.116 16.523 19.85-.062 38.453-10.137 51.114-26.548 3.558-4.612 8.974-7.41 14.799-7.41h37.409c-45-26.292-25.226-72.619-25.226-72.619l-5.881-26.529c-47.476-27.835-28.56-77.653-28.56-77.653z" fill="#bec8f7"/><circle cx="358.084" cy="129.559" fill="#1886ea" r="13.917"/><circle cx="405.56" cy="129.559" fill="#1886ea" r="13.917"/><circle cx="453.035" cy="129.559" fill="#4fabf7" r="13.917"/><g><path d="m236.125 143.917c-11.555-5.962-25.924-10.099-43.55-10.099-17.625 0-31.995 4.137-43.55 10.099-25.296 13.05-40.884 38.964-40.884 66.927v34.493l.001.012c3.99-.094 8.404 1.214 11.247 3.109 1.048-3.428 2.482-6.397 4.42-8.581 1.745-1.966 2.84-4.399 2.917-7.001.297-9.958 2.91-33.49 20.445-42.497 4.885-2.509 10.854-.595 13.598 4.163 10.562 18.313 35.201 42.445 89.993 32.161 3.886-.729 7.538 2.16 7.659 6.112.001.021.001.041.002.062.077 2.602 1.172 5.035 2.917 7.001 1.938 2.184 3.372 5.153 4.42 8.581 2.843-1.895 7.257-3.202 11.247-3.109l.001-.012v-34.493c.001-27.963-15.587-53.877-40.883-66.928z" fill="#2a428c"/></g><path d="m191.52 220.551c-27.157-51.88 23.866-84.204 23.866-84.204-6.913-1.599-14.495-2.529-22.811-2.529-17.625 0-31.995 4.137-43.55 10.099-25.296 13.05-40.884 38.964-40.884 66.927v34.493l.001.012c3.99-.094 8.404 1.214 11.247 3.109 1.048-3.428 2.482-6.397 4.42-8.581 1.745-1.966 2.84-4.399 2.917-7.001.297-9.958 2.91-33.49 20.445-42.497 4.885-2.509 10.854-.595 13.599 4.163 5.71 9.9 15.548 21.491 32.027 28.436-.428-.811-.854-1.619-1.277-2.427z" fill="#1c2e7a"/><path d="m118.694 294.701s-4.58-28.983.695-46.244c-4.786-3.19-14.033-4.748-18.191-.682-8.514 8.324-2.276 20.894.71 28.834.917 2.438 1.508 4.904 1.775 7.374.581 5.368 3.491 13.224 15.559 13.039-.183-.773-.37-1.535-.548-2.321z" fill="#fd995b"/><path d="m283.952 247.775c-4.159-4.066-13.405-2.508-18.191.682 5.275 17.261.695 46.244.695 46.244-.178.786-.365 1.547-.547 2.321 12.068.185 14.978-7.671 15.559-13.039.267-2.471.859-4.936 1.775-7.374 2.985-7.94 9.223-20.51.709-28.834z" fill="#fcad6d"/><path d="m117.566 412.226c13.177 22.551 33.133 40.09 57.709 50.723 11.007 4.761 23.629 4.761 34.635 0 24.577-10.633 44.532-28.172 57.71-50.723.595-1.018 1.178-2.056 1.761-3.095-20.579-8.103-39.33-19.503-39.33-34.307 0-5.291 0-3.706 0-7.132-9.226 8.248-25.047 18.756-38.077 19.071-13.03-.315-28.851-10.824-38.077-19.071 0 9.836 2.611 21.676-28.306 36.687-3.174 1.541-6.537 3.003-9.995 4.384.65 1.163 1.304 2.323 1.97 3.463z" fill="#fcad6d"/><path d="m191.913 386.76c-13.019-.346-28.805-10.833-38.017-19.069 0 9.836 2.611 21.676-28.306 36.687-3.174 1.541-6.537 3.003-9.995 4.384.651 1.164 1.304 2.324 1.97 3.464 10.725 18.354 25.94 33.386 44.481 44.079 21.396-22.608 27.949-51.383 29.867-69.545z" fill="#fd995b"/><path d="m371.622 462.099c-13.992-27.984-38.55-35.798-49.739-37.947-2.884-.777-30.277-5.982-54.401-15.78-.699 1.256-1.404 2.501-2.121 3.728-12.784 21.878-32.144 38.894-55.987 49.21-10.678 4.619-22.923 4.619-33.602 0-23.843-10.316-43.203-27.331-55.987-49.21-.787-1.348-1.564-2.713-2.33-4.096-24.728 10.193-55.265 16.116-55.393 16.149-1.244.239-2.662.553-4.204.952 44.943 53.141 112.097 86.895 187.144 86.895 48.329 0 93.385-14 131.346-38.156-1.404-4.292-2.971-8.235-4.726-11.745z" fill="#fc90ce"/><path d="m259.026 232.857c-.038-1.266-.118-2.797-.266-4.509-.445-.642-.976-1.23-1.599-1.732-1.89-1.521-4.349-2.134-6.731-1.688-52.247 9.805-76.742-11.604-88.099-31.29-2.074-3.597-5.667-5.762-9.474-6.116-3.224.894-6.186 2.233-8.875 4.024-15.309 10.194-17.588 32.285-17.857 41.31-.071 2.372-1.027 4.661-2.767 6.62-9.587 10.803-7.487 42.363-5.25 55.356 4.953 21.862 12.128 40.925 21.322 56.661 9.334 15.974 23.469 28.398 40.878 35.93 7.798 3.372 16.738 3.372 24.534 0 17.409-7.532 31.544-19.956 40.878-35.93 9.193-15.731 16.368-34.795 21.331-56.699 2.148-13.659 4.436-44.391-5.259-55.317-1.74-1.959-2.696-4.249-2.766-6.62z" fill="#f9ba8f"/><path d="m203.503 351.494c-9.194-15.736-16.369-34.798-21.322-56.661-2.237-12.993-4.336-44.554 5.25-55.356 1.74-1.96 2.696-4.248 2.767-6.62.089-2.977.4-7.381 1.322-12.306-14.342-6.577-23.448-16.962-29.189-26.913-2.074-3.597-5.667-5.762-9.474-6.116-3.224.894-6.186 2.233-8.875 4.024-15.309 10.194-17.588 32.285-17.857 41.31-.071 2.372-1.027 4.661-2.767 6.62-9.587 10.803-7.487 42.363-5.25 55.356 4.953 21.862 12.128 40.925 21.322 56.661 9.334 15.974 23.47 28.398 40.878 35.93 7.798 3.372 16.738 3.373 24.534 0 7.187-3.109 13.806-7.065 19.77-11.748-8.482-6.659-15.629-14.802-21.109-24.181z" fill="#fcad6d"/><g fill="#f964b2"><path d="m163.235 455.026c-18.12-10.384-32.988-25.024-43.448-42.926-.787-1.348-1.564-2.713-2.33-4.096-24.728 10.193-55.265 16.116-55.393 16.149-1.244.239-2.662.553-4.204.952 18.89 22.337 41.716 41.229 67.391 55.649 16.25-6.37 28.604-15.452 37.984-25.728z"/><path d="m337.689 493.846c-3.162-7.254-7.22-12.757-11.105-16.785-4.647-4.818-12.809-1.462-12.809 5.231v19.914c8.156-2.382 16.134-5.178 23.914-8.36z"/></g></g></svg>