<svg height="512" viewBox="0 0 512 512" width="512" xmlns="http://www.w3.org/2000/svg"><g id="Corona_Virus_Symptoms_Fever" data-name="Corona Virus Symptoms Fever"><g id="Flat"><path d="m440 133.83v210.17s-78.036 39.653-143.129 39.99a8 8 0 0 1 -6.821-12.246 288.191 288.191 0 0 1 21.95-30.69v-29.054h-52a36.04 36.04 0 0 1 -36-36v-31.53c-20.075-13.249-24.79-13.07-25.872-19.045-1.113-6.145 2.851-6.62 25.872-37.6v-53.995z" fill="#ffdfc5"/><path d="m312 315.261v25.793a288.191 288.191 0 0 0 -21.95 30.69 8 8 0 0 0 6.821 12.246c65.093-.337 136.026-39.337 139.015-41a8 8 0 0 0 4.114-6.99v-171.448a232.539 232.539 0 0 1 -128 150.709z" fill="#ffd5c7"/><path d="m495.811 512h-247.641c-2.433-57.059 21.754-108.113 41.884-140.254 21.946 4.254 136.546-19.746 150.946-40.546 39 44.8 55.889 103.736 55 152.043z" fill="#96e0d7"/><path d="m467.7 369.857a208.126 208.126 0 0 1 -218.83 115.855 193.164 193.164 0 0 0 -.7 26.288h247.641l.189-28.757c.65-35.343-8.229-76.365-28.3-113.386z" fill="#97d0dd"/><path d="m429.187 302.057c-69.187-25.988-69.187-95.857-69.187-137.601 0-2.862-.633-6.844-3.647-9.561-5.476-4.936-5.606-2.011-86.99-2.9-23.511-.395-42.727-8.562-57.114-24.276-32.107-35.064-28.211-95.179-28.029-97.719.607-8.491 11.76-10.268 15.116-3.051 26.676 46.919 215.191-82.494 260.774 3.1 17.972 2.4 32.712 14.327 41.858 34.031 11.9 25.648 13.306 61.677 3.95 101.451-10.5 44.648-33.887 90.976-67.624 133.975a8 8 0 0 1 -9.107 2.551z" fill="#68676b"/><path d="m479.351 37.013a220.043 220.043 0 0 1 -116.543 177.52c5.362 34.505 20.967 70.466 66.379 87.524a8 8 0 0 0 9.107-2.552c33.737-43 57.121-89.327 67.624-133.975 10.398-44.2 10.244-105.391-26.567-128.517z" fill="#58575b"/><path d="m88.022 448q-1.067 0-2.138-.024a88.3 88.3 0 0 1 -85.878-86.976 88.415 88.415 0 0 1 31.994-68.878v-220.122a24.027 24.027 0 0 1 24-24h64a24.027 24.027 0 0 1 24 24v220.116a88 88 0 0 1 -55.978 155.884z" fill="#e2dbd5"/><path d="m144 292.116v-77.757a179.539 179.539 0 0 1 -112 56.529v21.234a88.415 88.415 0 0 0 -31.994 68.878 88.3 88.3 0 0 0 85.878 86.976q1.073.024 2.138.024a88 88 0 0 0 55.978-155.884z" fill="#d4ccc7"/><path d="m376 238.567h-32v-64h16.743c6.784-34.749 55.257-30.962 55.257 16 0 27.003-13.6 48-40 48z" fill="#ffdfc5"/><path d="m304 200a32.036 32.036 0 0 1 -32-32c0-14.607 20.846-52.474 25.024-59.917a8 8 0 0 1 13.952 0c4.178 7.443 25.024 45.31 25.024 59.917a32.036 32.036 0 0 1 -32 32z" fill="#afefde"/><path d="m88 416a55.992 55.992 0 0 1 -24-106.584v-133.416h48v133.416a55.992 55.992 0 0 1 -24 106.584z" fill="#f27c6d"/><g fill="#e2dbd5"><circle cx="16" cy="448" r="8"/><circle cx="48" cy="464" r="8"/><circle cx="128" cy="464" r="8"/><circle cx="88" cy="472" r="8"/><circle cx="160" cy="448" r="8"/></g><path d="m72 80h-40v16h40a8 8 0 0 0 0-16z" fill="#c6bab3"/><path d="m88 112h-56v16h56a8 8 0 0 0 0-16z" fill="#c6bab3"/><path d="m72 144h-40v16h40a8 8 0 0 0 0-16z" fill="#c6bab3"/><path d="m37.406 383.982a55.983 55.983 0 1 0 94.625-58.523 107.988 107.988 0 0 1 -94.625 58.523z" fill="#ed6464"/><circle cx="72" cy="352" fill="#ffa596" r="16"/><circle cx="104" cy="328" fill="#ffa596" r="8"/><path d="m272.966 175.8a32 32 0 0 0 63.034-7.8c0-6.22-3.784-16.659-8.447-27.17a67.987 67.987 0 0 1 -54.587 34.97z" fill="#96e0d7"/><circle cx="380" cy="52" fill="#8a8a8c" r="28"/><circle cx="428" cy="84" fill="#8a8a8c" r="12"/><path d="m448 512h-112v-71.15c0-30.731 24.4-56.375 55.131-56.843a56.062 56.062 0 0 1 56.869 55.993z" fill="#afefde"/><path d="m399.994 155.515c0 .162.006.323.006.485a92 92 0 0 1 -51.389 82.567h27.389c26.4 0 40-21 40-48 0-17.814-6.977-29.41-16.006-35.052z" fill="#ffd5c7"/><circle cx="384" cy="432" fill="#d5f7ed" r="16"/><circle cx="408" cy="456" fill="#d5f7ed" r="8"/></g></g></svg>