<svg id="Capa_1" enable-background="new 0 0 510 510" height="512" viewBox="0 0 510 510" width="512" xmlns="http://www.w3.org/2000/svg"><path d="m349 510h-188c-26.848 0-46.341-23.402-44.97-46l16.98-254.71c2.37-35.54 26.94-66.12 61.14-76.08 1.292-.379 2.18-1.565 2.18-2.912v-66.968h117.34v66.965c0 1.348.889 2.535 2.184 2.913l.006.002c34.19 9.96 58.76 40.54 61.13 76.08l16.98 254.71c1.368 22.558-18.074 46-44.97 46z" fill="#c5ef87"/><path d="m349 510h-94v-446.67h58.67v66.965c0 1.348.889 2.535 2.184 2.913l.006.002c34.19 9.96 58.76 40.54 61.13 76.08l16.98 254.71c1.368 22.558-18.074 46-44.97 46z" fill="#53e361"/><path d="m363.99 465.42c-.22 8.07-6.86 14.58-14.99 14.58h-188c-8.13 0-14.77-6.51-14.99-14.58l13.338-200.215c.35-5.253 4.713-9.335 9.978-9.335h171.348c5.265 0 9.628 4.082 9.978 9.335z" fill="#53e361"/><path d="m363.99 465.42c-.22 8.07-6.86 14.58-14.99 14.58h-94v-224.13h85.674c5.265 0 9.628 4.082 9.978 9.335z" fill="#00a03c"/><path d="m335.53 18.46v43.08c0 10.19-8.26 18.46-18.46 18.46h-124.14c-10.2 0-18.46-8.27-18.46-18.46v-43.08c0-10.19 8.26-18.46 18.46-18.46h124.14c10.2 0 18.46 8.27 18.46 18.46z" fill="#685e68"/><path d="m326.86 428.979c-3.48 7.51-12.4 10.78-19.92 7.3l-51.94-24.079-51.94 24.08c-7.51 3.48-16.43.22-19.92-7.3-3.48-7.52-.21-16.44 7.3-19.92l28.89-13.39-28.89-13.39c-7.51-3.49-10.78-12.4-7.3-19.92s12.4-10.79 19.92-7.3l51.94 24.07 51.94-24.07c7.52-3.49 16.44-.22 19.92 7.3s.21 16.43-7.3 19.92l-28.89 13.39 28.89 13.39c7.51 3.48 10.78 12.399 7.3 19.919z" fill="#685e68"/><path d="m326.86 428.979c-3.48 7.51-12.4 10.78-19.92 7.3l-51.94-24.079v-33.07l51.94-24.07c7.52-3.49 16.44-.22 19.92 7.3s.21 16.43-7.3 19.92l-28.89 13.39 28.89 13.39c7.51 3.48 10.78 12.399 7.3 19.919z" fill="#40383f"/><path d="m305.56 278.34c0 13.39-5.2 21.61-13.7 26.54-2.983 1.723-5 4.928-5 8.58 0 9.59-7.78 17.37-17.38 17.37h-28.96c-9.591 0-17.38-7.766-17.38-17.37 0-3.56-1.93-6.8-5-8.58-8.5-4.93-13.7-13.15-13.7-26.54 0-27.92 22.64-50.56 50.56-50.56s50.56 22.639 50.56 50.56z" fill="#685e68"/><g fill="#40383f"><path d="m269.48 330.83h-14.48v-103.05c27.92 0 50.56 22.64 50.56 50.56 0 13.39-5.2 21.61-13.7 26.54-2.983 1.723-5 4.928-5 8.58 0 9.59-7.78 17.37-17.38 17.37z"/><path d="m335.53 18.46v43.08c0 10.19-8.26 18.46-18.46 18.46h-62.07v-80h62.07c10.2 0 18.46 8.27 18.46 18.46z"/></g></svg>