<svg height="512" viewBox="0 0 256 256" width="512" xmlns="http://www.w3.org/2000/svg"><path d="m244.442 244.441a25.805 25.805 0 0 1 -38.285-1.986l-75.381-92.893 18.786-18.786 92.893 75.381a25.8 25.8 0 0 1 1.987 38.284z" fill="#8852a8"/><path d="m242.455 206.157-92.893-75.381-5.639 5.639 92.893 75.38a25.811 25.811 0 0 1 4.587 35.247 26.16 26.16 0 0 0 3.039-2.6 25.8 25.8 0 0 0 -1.987-38.285z" fill="#6a348a"/><path d="m206.157 242.455-75.381-92.893 5.639-5.639 75.38 92.893a25.81 25.81 0 0 0 35.246 4.587 25.8 25.8 0 0 1 -40.884 1.052z" fill="#a670c6"/><path d="m226.188 254q-.715 0-1.435-.038a27.845 27.845 0 0 1 -20.153-10.247l-75.38-92.893a2 2 0 0 1 .138-2.674l18.785-18.786a2 2 0 0 1 2.674-.139l92.898 75.377a27.806 27.806 0 0 1 -17.527 49.4zm-92.723-104.3 74.245 91.492a23.8 23.8 0 0 0 35.317 1.833 23.8 23.8 0 0 0 -1.827-35.315l-91.5-74.245z" fill="#690589"/><circle cx="88.352" cy="88.352" fill="#fcc24c" r="84.352" transform="matrix(.267 -.964 .964 .267 -20.378 149.914)"/><path d="m86.393 172.4c1.453.119 2.917.2 4.388.246a84.325 84.325 0 0 0 0-168.581c-1.469.052-2.932.128-4.384.247a84.328 84.328 0 0 1 0 168.088z" fill="#dea42e"/><path d="m90.31 4.308c-1.453-.119-2.917-.195-4.388-.247a84.325 84.325 0 0 0 0 168.581c1.47-.051 2.933-.128 4.384-.246a84.328 84.328 0 0 1 0-168.088z" fill="#fce06a"/><path d="m88.352 174.663a86.311 86.311 0 1 1 61.06-25.251 86.083 86.083 0 0 1 -61.06 25.251zm0-168.624a82.313 82.313 0 1 0 58.232 24.081 82.1 82.1 0 0 0 -58.231-24.081z" fill="#690589"/><path d="m12.065 94.042a2 2 0 0 1 -2-1.926 92 92 0 0 1 .371-12.268 2 2 0 1 1 3.98.388 88 88 0 0 0 -.353 11.732 2 2 0 0 1 -1.925 2.073z" fill="#690589"/><circle cx="88.352" cy="88.352" fill="#f4efed" r="62.231" transform="matrix(.926 -.377 .377 .926 -26.797 39.845)"/><path d="m88.352 152.583a64.231 64.231 0 1 1 45.419-109.649 64.232 64.232 0 0 1 -45.419 109.649zm0-124.434a60.182 60.182 0 1 0 42.59 17.613 60.044 60.044 0 0 0 -42.59-17.613z" fill="#690589"/><path d="m67.885 120.785a13.788 13.788 0 0 1 -13.785-13.785v-13.79h27.572v13.79a13.788 13.788 0 0 1 -13.787 13.785z" fill="#8852a8"/><path d="m69.449 39.307a15.352 15.352 0 0 0 -15.349 15.352v38.551h23.216l7.484-13.845v-24.706a15.351 15.351 0 0 0 -15.351-15.352z" fill="#8852a8"/><path d="m67.885 122.785a15.8 15.8 0 0 1 -15.785-15.785v-13.79a2 2 0 0 1 2-2h27.572a2 2 0 0 1 2 2v13.79a15.8 15.8 0 0 1 -15.787 15.785zm-11.785-27.575v11.79a11.787 11.787 0 1 0 23.574 0v-11.79z" fill="#690589"/><path d="m77.315 95.21h-23.215a2 2 0 0 1 -2-2v-38.551a17.351 17.351 0 1 1 34.7 0v24.707a2.01 2.01 0 0 1 -.24.951l-7.485 13.844a2 2 0 0 1 -1.76 1.049zm-21.217-4h20.025l6.677-12.35v-24.2a13.351 13.351 0 1 0 -26.7 0z" fill="#690589"/><path d="m75.313 103.758h-14.857a2 2 0 0 1 0-4h14.857a2 2 0 0 1 0 4z" fill="#690589"/><path d="m75.313 111.958h-14.857a2 2 0 1 1 0-4h14.857a2 2 0 1 1 0 4z" fill="#690589"/><path d="m108.819 137.4a13.787 13.787 0 0 0 13.787-13.788v-13.789h-27.574v13.787a13.787 13.787 0 0 0 13.787 13.79z" fill="#8852a8"/><path d="m107.255 55.92a15.351 15.351 0 0 1 15.351 15.351v38.552h-23.218l-7.488-13.845v-24.707a15.351 15.351 0 0 1 15.355-15.351z" fill="#8852a8"/><g fill="#690589"><path d="m108.819 139.4a15.805 15.805 0 0 1 -15.788-15.79v-13.787a2 2 0 0 1 2-2h27.575a2 2 0 0 1 2 2v13.787a15.8 15.8 0 0 1 -15.787 15.79zm-11.788-27.577v11.787a11.788 11.788 0 0 0 23.575 0v-11.787z"/><path d="m122.606 111.823h-23.218a2 2 0 0 1 -1.76-1.049l-7.484-13.845a2 2 0 0 1 -.241-.951v-24.707a17.352 17.352 0 0 1 34.7 0v38.552a2 2 0 0 1 -1.997 2zm-22.026-4h20.026v-36.552a13.352 13.352 0 0 0 -26.7 0v24.2z"/><path d="m116.247 120.371h-14.856a2 2 0 0 1 0-4h14.856a2 2 0 0 1 0 4z"/><path d="m116.247 128.571h-14.856a2 2 0 1 1 0-4h14.856a2 2 0 0 1 0 4z"/><path d="m84.8 81.366h-30.7a2 2 0 0 1 0-4h30.7a2 2 0 0 1 0 4z"/><path d="m122.606 97.978h-30.706a2 2 0 0 1 0-4h30.7a2 2 0 0 1 0 4z"/></g></svg>