<svg id="Capa_1" enable-background="new 0 0 512 512" height="512" viewBox="0 0 512 512" width="512" xmlns="http://www.w3.org/2000/svg"><g><g><g clip-rule="evenodd" fill-rule="evenodd"><path d="m110.324 342.259h135.289l86.25-74.251 12.751-40.5 23.25-.75 28.499 51 22.5-5.25 6.751-57 25.458-39.75h-119.209-279.915l-10.334 6.001v58.5l45 27z" fill="#e5ecf5"/><path d="m110.324 342.259 42.281 133.744 16.571 28.497h34.438l12-15.241v-89.25l29.999-57.75z" fill="#9ce3bf"/><path d="m451.072 175.758 17.292-27-25.5-26.25-111.001 53.25-98.162-38.804-26.448-36.211 5.36-38.985-6.75-22.5-55.5-31.758h-30l-26.249 49.759 40.5 43.5-46.5 54-36.166 20.999z" fill="#ed9c87"/><path d="m110.324 342.259h22.5l-23.71-82.499-45-27v-51l10.335-6.001h-22.5l-10.334 6.001v58.5l45 27zm252.702-122.698 33.337 58.197 19.904-4.644-31.141-54.266z" fill="#cad8eb"/><path d="m110.324 342.259 42.281 133.744 16.571 28.497h22.499l-16.57-28.497-42.281-133.744z" fill="#52cd8d"/><path d="m452.616 132.7-9.753-10.192-111 53.25h30zm-309.753-125.2h-22.5l-26.249 49.759 40.5 43.5-46.5 54-36.166 20.999h22.5l36.166-20.999 46.5-54-40.5-43.5z" fill="#e46a4a"/><path d="m129.425 259.008c0 34.11 31.519 59.149 64.5 52.055-24.006-5.164-42-26.506-42-52.055s17.995-46.892 42-52.055c-32.982-7.094-64.5 17.945-64.5 52.055z" fill="#cad8eb"/></g><g><path d="m193.115 474.634h-15v-45h15zm0-60h-15v-15h15zm74.973-123.697-9.785-11.367 23.433-20.172 9.785 11.367zm34.8-29.958-9.785-11.367 11.368-9.786 9.785 11.367zm-223.774-47.721h-15v-15h15zm105.996-119.082h-15v-15h15zm-7.5-30.001h-15v-15h15z" fill="#fff"/></g></g><g><path d="m92.909 262.289-43.795-26.276v-49.937l4.854-2.818h116.501v-15h-90.668l13.171-7.648 51.707-60.047-41.446-44.516 7.14-13.534-13.268-6.998-12.11 22.956 39.553 42.483-41.293 47.953-49.141 28.534v67.064l46.205 27.724 8.737 27.638 14.303-4.521z"/><path d="m444.484 113.413-53.602 25.714 6.489 13.523 43.873-21.046 17.597 18.116-11.872 18.538h-82.132l19.007-9.118-6.488-13.524-45.782 21.963-93.097-36.802-23.382-32.012 5.17-37.601-8.078-26.929-59.83-34.235h-36.518l-11.734 22.246 13.268 6.998 7.513-14.244h23.483l51.172 29.28 5.419 18.072-5.55 40.37 29.514 40.409 63.566 25.127h-107.022v15h251.894l-18.993 29.656-6.334 53.487-11.878 2.772-27.973-50.058-33.127 1.07-13.705 43.534-82.522 71.04h-57.362v15h47.798l-25.152 48.418v38.957h15v-35.293l28.489-54.842 86.773-74.7 11.794-37.466 13.373-.431 29.028 51.944 33.122-7.73 7.166-60.514 45.027-70.306z"/><path d="m208.114 486.661-8.141 10.339h-26.483l-13.984-24.049-38.945-123.192h49.908v-15h-54.65l-7.938-25.109-14.302 4.522 51.875 164.092.251.792 19.156 32.944h42.393l15.86-20.142v-39.724h-15z"/><path d="m121.924 259.009c0 33.498 27.253 60.75 60.751 60.75s60.75-27.252 60.75-60.75-27.252-60.751-60.75-60.751-60.751 27.253-60.751 60.751zm23.555 26.588c-3.99-5.567-6.765-12.057-7.929-19.088h27.018zm29.696-8.483v27.019c-7.032-1.165-13.523-3.939-19.09-7.93zm25.607-10.605h27.018c-1.165 7.031-3.939 13.522-7.93 19.089zm8.482 29.695c-5.567 3.991-12.057 6.765-19.089 7.93v-27.018zm-8.483-44.695 19.089-19.09c3.991 5.567 6.765 12.058 7.93 19.09zm-10.606-10.608v-27.018c7.031 1.165 13.522 3.939 19.088 7.929zm-15 .001-19.089-19.089c5.567-3.991 12.058-6.765 19.089-7.93zm-10.606 10.607h-27.019c1.165-7.032 3.939-13.523 7.93-19.089z"/></g></g></svg>