<svg id="Layer_5" enable-background="new 0 0 64 64" height="512" viewBox="0 0 64 64" width="512" xmlns="http://www.w3.org/2000/svg"><path d="m53 19 1.68-3.35.32.16v7.19c0 2.48-1.01 4.74-2.64 6.36-1.62 1.63-3.88 2.64-6.36 2.64-4.97 0-9-4.03-9-9v-9.3c0-2.07-.84-3.94-2.2-5.3s-3.23-2.2-5.3-2.2c-4.14 0-7.5 3.36-7.5 7.5v1.28c-.5-.56-1.11-.98-2.01-.98-.89 0-1.49.41-1.99.96v-1.46c0-6.35 5.15-11.5 11.5-11.5 3.18 0 6.05 1.29 8.13 3.37s3.37 4.95 3.37 8.13v9.5c0 2.76 2.24 5 5 5 1.38 0 2.63-.56 3.54-1.46.9-.91 1.46-2.16 1.46-3.54v-7l.4-.2z" fill="#cf9e76"/><path d="m28 28c5.8 2.99 10 9.02 10 16 0 9.94-8.06 18-18 18s-18-8.06-18-18c0-6.98 4.2-13.01 10-16z" fill="#b4dd7f"/><path d="m22 14.98c1.07 1.18 1.68 3.02 3.57 3.02 2.79 0 4.64-4 7.43-4v.03c0 3.18-1.17 6.23-3.26 8.48l-1.38 1.49h-16.72l-1.38-1.49c-2.09-2.25-3.26-5.3-3.26-8.48v-.03c2.78 0 4.64 4 7.42 4 1.9 0 2.51-1.86 3.58-3.04.5-.55 1.1-.96 1.99-.96.9 0 1.51.42 2.01.98z" fill="#b4dd7f"/><path d="m29 24c1.1 0 2 .9 2 2 0 .55-.22 1.05-.59 1.41-.36.37-.86.59-1.41.59h-1-16-1c-1.1 0-2-.9-2-2 0-.55.22-1.05.59-1.41.36-.37.86-.59 1.41-.59h.64 16.72z" fill="#cf9e76"/><path d="m61 11-4 2 2 4-4-2-.32.65-1.68 3.35-1.6-3.2-.4-.8-4 2 2-4-4-2 4-2-2-4 4 2 2-4 2 4 4-2-2 4z" fill="#ff826e"/><path d="m25 53h-5c-2.757 0-5-2.243-5-5h2c0 1.654 1.346 3 3 3h3v-3c0-1.654-1.346-3-3-3-2.757 0-5-2.243-5-5v-5h5c2.757 0 5 2.243 5 5h-2c0-1.654-1.346-3-3-3h-3v3c0 1.654 1.346 3 3 3 2.757 0 5 2.243 5 5z"/><path d="m19 33h2v3h-2z"/><path d="m19 52h2v3h-2z"/><circle cx="28" cy="44" r="1"/><circle cx="12" cy="44" r="1"/><path d="m20 63c-10.477 0-19-8.523-19-19 0-6.962 4.138-13.592 10.542-16.889l.216-.111h16.484l.216.111c6.404 3.297 10.542 9.927 10.542 16.889 0 10.477-8.523 19-19 19zm-7.754-34c-5.625 2.994-9.246 8.855-9.246 15 0 9.374 7.626 17 17 17s17-7.626 17-17c0-6.145-3.621-12.006-9.246-15z"/><path d="m29 29h-18c-1.654 0-3-1.346-3-3s1.346-3 3-3h18c1.654 0 3 1.346 3 3s-1.346 3-3 3zm-18-4c-.552 0-1 .449-1 1s.448 1 1 1h18c.552 0 1-.449 1-1s-.448-1-1-1z"/><path d="m53 21.236-2.447-4.894-5.789 2.894 2.895-5.789-4.895-2.447 4.895-2.447-2.895-5.789 5.789 2.894 2.447-4.894 2.447 4.894 5.789-2.894-2.895 5.789 4.895 2.447-4.895 2.447 2.895 5.789-5.789-2.894zm-1.553-7.578 1.553 3.106 1.553-3.106 2.211 1.106-1.105-2.211 3.105-1.553-3.105-1.553 1.105-2.211-2.211 1.106-1.553-3.106-1.553 3.106-2.211-1.106 1.105 2.211-3.105 1.553 3.105 1.553-1.105 2.211z"/><path d="m29.09 24.68-1.465-1.36 1.379-1.485c1.63-1.756 2.665-4.093 2.929-6.555-.657.325-1.314.891-1.996 1.478-1.22 1.051-2.604 2.242-4.369 2.242-1.916 0-2.854-1.346-3.607-2.428-.699-1.004-1.136-1.572-1.967-1.572-.83 0-1.267.568-1.966 1.572-.753 1.082-1.69 2.428-3.605 2.428-1.763 0-3.146-1.191-4.364-2.243-.68-.586-1.335-1.15-1.989-1.476.268 2.473 1.302 4.802 2.927 6.552l1.379 1.486-1.465 1.36-1.379-1.485c-2.278-2.451-3.532-5.706-3.532-9.165v-1l1-.029c1.763 0 3.146 1.191 4.364 2.243 1.049.903 2.038 1.757 3.059 1.757.83 0 1.266-.568 1.965-1.571.753-1.082 1.691-2.429 3.606-2.429 1.916 0 2.854 1.346 3.607 2.428.7 1.004 1.136 1.572 1.967 1.572 1.022 0 2.014-.854 3.063-1.758 1.221-1.051 2.604-2.242 4.369-2.242h1v1c0 3.488-1.254 6.743-3.531 9.195z"/><path d="m31.49 53.643-1.531-1.286c1.961-2.335 3.041-5.303 3.041-8.357 0-2.286-.602-4.533-1.738-6.499l1.73-1.002c1.314 2.27 2.008 4.864 2.008 7.501 0 3.524-1.246 6.948-3.51 9.643z"/><path d="m27.73 56.857-1.031-1.714c.866-.521 1.673-1.146 2.398-1.857l1.4 1.429c-.836.819-1.768 1.54-2.767 2.142z"/><path d="m7.638 39.966-1.902-.617c.22-.676.491-1.343.809-1.985l1.793.887c-.276.554-.511 1.131-.7 1.715zm1.638-3.317-1.648-1.132c.403-.587.852-1.151 1.334-1.674l1.471 1.355c-.418.454-.807.942-1.157 1.451zm2.508-2.724-1.266-1.55c.553-.451 1.142-.865 1.751-1.232l1.031 1.713c-.527.319-1.037.678-1.516 1.069z"/><path d="m46 29c-3.309 0-6-2.691-6-6v-9.5c0-5.79-4.71-10.5-10.5-10.5s-10.5 4.71-10.5 10.5v1.5h-2v-1.5c0-6.893 5.607-12.5 12.5-12.5s12.5 5.607 12.5 12.5v9.5c0 2.206 1.794 4 4 4s4-1.794 4-4v-7h2v7c0 3.309-2.691 6-6 6z"/><path d="m46 33c-5.514 0-10-4.486-10-10v-9.302c0-3.584-2.916-6.5-6.5-6.5s-6.5 2.916-6.5 6.5v1.302h-2v-1.302c0-4.687 3.813-8.5 8.5-8.5s8.5 3.813 8.5 8.5v9.302c0 4.411 3.589 8 8 8s8-3.589 8-8v-7.193h2v7.193c0 5.514-4.486 10-10 10z"/></svg>