<svg height="512pt" viewBox="-49 0 512 512.00095" width="512pt" xmlns="http://www.w3.org/2000/svg"><path d="m271.351562 32.132812h-.015624c-8.277344 0-14.992188 6.714844-14.992188 14.992188v160.675781c0 8.285157 6.71875 15 15 15h19.980469c23.867187 0 43.214843-19.347656 43.214843-43.214843v-83.242188c0-36.332031-28.414062-64.210938-63.1875-64.210938zm0 0" fill="#e79a85"/><path d="m270.609375.015625h-255.609375c-8.285156 0-15 6.71875-15 15v481.234375c0 10.113281 7.582031 15.734375 14.257812 15.75h.023438c34.503906 0 81.304688-10.835938 120.300781-49.828125l134.179688-134.171875c11.25-11.25 17.578125-26.519531 17.578125-42.429688v-270.574218c0-8.519532-7.109375-15.386719-15.730469-14.980469zm0 0" fill="#ffd4ca"/><path d="m270.609375.015625h-167.96875v487.324219c10.941406-6.664063 21.710937-14.941406 31.941406-25.171875l134.179688-134.167969c11.25-11.25 17.578125-26.519531 17.578125-42.429688v-270.574218c0-8.519532-7.109375-15.386719-15.730469-14.980469zm0 0" fill="#f9bcaa"/><path d="m410.476562 486.394531-118-118c-5.859374-5.855469-15.355468-5.855469-21.214843 0-5.855469 5.859375-5.855469 15.355469 0 21.214844l118 118c5.859375 5.855469 15.355469 5.855469 21.214843 0 5.859376-5.859375 5.859376-15.359375 0-21.214844zm0 0" fill="#006cae"/><path d="m410.480469 507.609375-118.03125-118.027344-21.1875-21.179687c5.859375-5.863282 15.359375-5.863282 21.207031 0l10.03125 10.027344 107.980469 107.960937c5.851562 5.859375 5.851562 15.359375 0 21.21875zm0 0" fill="#0090e8"/><path d="m131.191406 85.839844c-7.105468 8.460937-17.507812 13.3125-28.554687 13.3125-11.019531 0-21.390625-4.824219-28.5-13.242188-2.75-3.402344-6.953125-5.574218-11.667969-5.574218-8.28125 0-15 6.71875-15 15.003906 0 3.507812 1.234375 6.90625 3.480469 9.605468 12.828125 15.382813 31.667969 24.207032 51.6875 24.207032 20.023437 0 38.863281-8.824219 51.6875-24.207032 2.25-2.699218 3.480469-6.101562 3.480469-9.609374 0-8.285157-6.714844-15-15-15-4.683594 0-8.863282 2.144531-11.613282 5.503906zm0 0" fill="#595155"/><path d="m48.527344 45.917969 85.390625-12.199219c15.421875-2.207031 31.378906-.765625 46.148437 4.160156l22.261719 7.417969c8.113281 2.703125 16.4375-1.886719 18.972656-9.488281 2.617188-7.855469-1.628906-16.351563-9.488281-18.972656l-22.257812-7.417969c-19.164063-6.390625-39.871094-8.257813-59.878907-5.398438l-85.390625 12.199219c-8.203125 1.171875-13.902344 8.769531-12.730468 16.96875 1.171874 8.199219 8.769531 13.898438 16.972656 12.730469zm0 0" fill="#c2885f"/><path d="m157.800781 95.332031c0 3.507813-1.230469 6.917969-3.480469 9.609375-12.820312 15.390625-31.660156 24.210938-51.679687 24.210938v-30c11.039063 0 21.441406-4.851563 28.550781-13.3125 2.75-3.359375 6.929688-5.507813 11.609375-5.507813 8.289063 0 15 6.71875 15 15zm0 0" fill="#595155"/><path d="m221.300781 35.808594c-2.53125 7.601562-10.859375 12.191406-18.96875 9.492187l-22.261719-7.421875c-14.769531-4.929687-30.730468-6.367187-46.148437-4.160156l-31.28125 4.472656v-30.3125l27.039063-3.859375c20-2.859375 40.710937-.988281 59.871093 5.402344l22.257813 7.417969c7.863281 2.621094 12.113281 11.109375 9.492187 18.96875zm0 0" fill="#a0622f"/><path d="m191.003906 431.667969c-79.144531 0-143.535156-64.390625-143.535156-143.535157 0-79.144531 64.390625-143.53125 143.535156-143.53125 79.144532 0 143.535156 64.386719 143.535156 143.53125 0 79.144532-64.390624 143.535157-143.535156 143.535157zm0 0" fill="#0090e8"/><path d="m191 144.601562c-39.570312 0-75.449219 16.097657-101.441406 42.089844l181.691406 181.6875.011719.023438 21.1875 21.179687c3.542969-3.542969 6.890625-7.261719 10.050781-11.152343 20.03125-24.679688 32.039062-56.121094 32.039062-90.300782 0-79.136718-64.386718-143.527344-143.539062-143.527344zm0 0" fill="#40bfff"/><path d="m191.003906 174.601562c-62.601562 0-113.535156 50.929688-113.535156 113.53125 0 62.605469 50.933594 113.535157 113.535156 113.535157 62.601563 0 113.535156-50.929688 113.535156-113.535157 0-62.601562-50.933593-113.53125-113.535156-113.53125zm0 0" fill="#f9bcaa"/><path d="m304.539062 288.128906c0 31.3125-12.730468 59.691406-33.289062 80.25l-160.488281-160.488281c20.558593-20.558594 48.9375-33.289063 80.238281-33.289063 62.609375 0 113.539062 50.929688 113.539062 113.527344zm0 0" fill="#ffd4ca"/><path d="m189.9375 272.066406c0 8.285156-6.714844 15-15 15s-15-6.714844-15-15 6.714844-15 15-15 15 6.714844 15 15zm0 0" fill="#2d2d2d"/><path d="m185.542969 282.671875c2.714843-2.714844 4.394531-6.460937 4.394531-10.605469 0-8.28125-6.71875-15-15-15-4.144531 0-7.894531 1.679688-10.605469 4.394532zm0 0" fill="#464141"/></svg>