<svg id="Layer_1" enable-background="new 0 0 256 256" height="512" viewBox="0 0 256 256" width="512" xmlns="http://www.w3.org/2000/svg"><path d="m229.173 99.036c-.131 0-.258.017-.388.019v-5.751c0-33.616-27.499-60.868-61.421-60.868-33.922 0-61.421 27.251-61.421 60.868v5.751c-.13-.003-.257-.019-.388-.019-10.349 0-18.739 8.314-18.739 18.57s8.39 18.57 18.739 18.57c.68 0 1.349-.04 2.011-.11 6.338 26.928 30.696 46.993 59.799 46.993 29.103 0 53.46-20.065 59.799-46.993.661.07 1.331.11 2.011.11 10.349 0 18.739-8.314 18.739-18.57-.002-10.256-8.392-18.57-18.741-18.57z" fill="#f9cfcf"/><path d="m136.842 129.04c-4.089 0-7.415-3.326-7.415-7.414v-12.357c0-4.088 3.326-7.415 7.415-7.415 4.088 0 7.414 3.326 7.414 7.415v12.357c0 4.088-3.326 7.414-7.414 7.414z" fill="#3762cc"/><path d="m197.596 129.04c-4.089 0-7.415-3.326-7.415-7.414v-12.357c0-4.088 3.326-7.415 7.415-7.415 4.088 0 7.414 3.326 7.414 7.415v12.357c0 4.088-3.326 7.414-7.414 7.414z" fill="#3762cc"/><path d="m167.364 185.059c-29.057 0-54.037-19.193-61.334-46.889-11.669.275-21.213-9.065-21.213-20.563 0-10.804 8.442-19.69 19.127-20.508v-3.793c0-34.665 28.45-62.867 63.42-62.867s63.421 28.202 63.421 62.867v3.793c10.685.818 19.127 9.704 19.127 20.508 0 11.342-9.303 20.569-20.739 20.569-.156 0-.314-.002-.474-.006-7.298 27.695-32.278 46.889-61.335 46.889zm-59.797-50.993c.918 0 1.731.631 1.945 1.542 6.299 26.761 30.089 45.451 57.852 45.451s51.553-18.69 57.852-45.451c.231-.98 1.149-1.637 2.157-1.531.629.066 1.217.099 1.8.099 9.23 0 16.739-7.433 16.739-16.569 0-9.134-7.506-16.566-16.732-16.57-.17.011-.263.017-.357.019-.559.027-1.056-.196-1.438-.572-.383-.376-.599-.89-.599-1.427v-5.751c0-32.459-26.656-58.867-59.421-58.867s-59.42 26.408-59.42 58.867v5.751c0 .537-.216 1.051-.599 1.427-.383.377-.886.597-1.438.572-.094-.001-.187-.007-.28-.014-.003 0-.006 0-.009 0-9.296 0-16.8 7.431-16.8 16.565 0 9.136 7.509 16.569 16.739 16.569.582 0 1.171-.032 1.8-.099.068-.008.139-.011.209-.011z" fill="#3762cc"/><path d="m179.67 156.822c-1.104 0-2-.896-2-2 0-1.351-.588-2.658-1.7-3.78-1.421-1.432-3.619-2.412-6.03-2.688-.143-.016-.281-.047-.413-.092h-4.326c-.131.044-.27.076-.413.092-2.411.276-4.609 1.256-6.03 2.689-1.112 1.121-1.7 2.428-1.7 3.779 0 1.104-.896 2-2 2s-2-.896-2-2c0-2.394 1.016-4.737 2.86-6.596 1.942-1.958 4.677-3.279 7.756-3.757.267-.133.568-.207.887-.207h5.606c.318 0 .62.074.887.207 3.079.478 5.813 1.798 7.756 3.756 1.845 1.86 2.86 4.203 2.86 6.597 0 1.105-.896 2-2 2z" fill="#3762cc"/><path d="m205.118 188.237h-9.928c.016-.385.029-.771.029-1.16v-10.629c-8.359 4.226-17.825 6.611-27.855 6.611-10.036 0-19.507-2.388-27.871-6.619v10.637c0 .389.014.775.029 1.16h-9.912c-17.3 0-31.324 14.024-31.324 31.324v15.713 4.462 8.264h138.156v-8.264-4.462-15.713c0-17.3-14.025-31.324-31.324-31.324z" fill="#f9cfcf"/><path d="m236.442 250h-138.156c-1.104 0-2-.896-2-2v-28.439c0-18.375 14.949-33.324 33.324-33.324h7.883v-9.797c0-.695.361-1.34.953-1.704.591-.365 1.331-.396 1.95-.081 8.399 4.249 17.472 6.403 26.968 6.403 9.49 0 18.558-2.152 26.953-6.396.619-.314 1.358-.283 1.95.081s.952 1.009.952 1.704v9.79h7.898c18.375 0 33.324 14.949 33.324 33.324v28.439c.001 1.104-.895 2-1.999 2zm-136.156-4h134.156v-26.439c0-16.169-13.155-29.324-29.324-29.324h-9.928c-.544 0-1.065-.222-1.442-.615s-.578-.922-.556-1.466c.015-.358.028-.718.028-1.08v-7.466c-8.134 3.617-16.816 5.448-25.855 5.448-9.045 0-17.732-1.833-25.871-5.455v7.473c0 .362.013.721.028 1.08.022.544-.179 1.074-.556 1.466-.377.393-.898.615-1.442.615h-9.912c-16.169 0-29.324 13.155-29.324 29.324v26.439z" fill="#3762cc"/><path d="m150.203 89.164h-61.329v-21.294c0-33.065 26.805-59.87 59.87-59.87h17.222c8.705 0 15.762 7.057 15.762 15.762v33.878c0 17.41-14.114 31.524-31.525 31.524z" fill="#4671c6"/><path d="m244.877 87.056h-35.691c-15.165 0-27.459-12.294-27.459-27.459v-37.192c0-7.956 6.449-14.405 14.405-14.405 26.921 0 48.744 21.824 48.744 48.744v30.312z" fill="#4671c6"/><path d="m95.331 89.164v12.892c2.942-1.903 6.449-3.019 10.224-3.019.131 0 .258.017.388.019v-5.751c0-1.393.056-2.772.149-4.141z" fill="#4671c6"/><path d="m228.454 87.056c.212 2.055.331 4.138.331 6.249v5.751c.13-.003.257-.019.388-.019 3.769 0 7.27 1.113 10.209 3.01v-14.991z" fill="#4671c6"/><path d="m216.588 104.363h-6.081c-9.046 0-17.925-2.465-25.676-7.129l-2.783-1.674c-.946-.57-1.252-1.798-.683-2.745.569-.946 1.797-1.251 2.745-.683l2.783 1.674c7.128 4.29 15.294 6.557 23.614 6.557h6.081c1.104 0 2 .896 2 2s-.895 2-2 2z" fill="#3762cc"/><path d="m124.221 104.363h-6.081c-1.104 0-2-.896-2-2s.896-2 2-2h6.081c8.32 0 16.485-2.268 23.614-6.557l2.783-1.674c.947-.568 2.176-.263 2.745.683.569.947.264 2.175-.683 2.745l-2.783 1.674c-7.751 4.664-16.63 7.129-25.676 7.129z" fill="#3762cc"/><ellipse cx="125.03" cy="216.116" fill="#f9a7a7" rx="8.89" ry="9.168"/><ellipse cx="137.493" cy="223.668" fill="#f9a7a7" rx="8.89" ry="9.168"/><ellipse cx="114.982" cy="234.667" fill="#f9a7a7" rx="5.818" ry="7"/><path d="m150.203 91.164h-61.328c-1.104 0-2-.896-2-2v-21.294c0-34.116 27.754-61.87 61.869-61.87h17.222c9.794 0 17.762 7.968 17.762 17.762v33.878c0 18.485-15.04 33.524-33.525 33.524zm-59.328-4h59.329c16.28 0 29.524-13.245 29.524-29.524v-33.878c0-7.588-6.174-13.762-13.762-13.762h-17.222c-31.909 0-57.869 25.96-57.869 57.87z" fill="#3762cc"/><path d="m244.877 89.056h-35.69c-16.244 0-29.459-13.215-29.459-29.459v-37.192c0-9.046 7.359-16.405 16.405-16.405 27.98 0 50.745 22.764 50.745 50.745v30.311c-.001 1.104-.896 2-2.001 2zm-48.744-79.056c-6.84 0-12.405 5.565-12.405 12.405v37.191c0 14.038 11.421 25.459 25.459 25.459h33.69v-28.31c0-25.775-20.969-46.745-46.744-46.745z" fill="#3762cc"/><path d="m95.331 104.056c-.328 0-.657-.081-.956-.243-.644-.35-1.044-1.024-1.044-1.757v-12.892c0-1.104.896-2 2-2h10.761c.554 0 1.083.229 1.461.634s.571.948.534 1.501c-.097 1.429-.144 2.739-.144 4.005v5.751c0 .537-.216 1.051-.599 1.427-.383.377-.886.597-1.438.572-.094-.001-.187-.007-.28-.014-.009 0-.017 0-.026 0-3.312 0-6.462.933-9.183 2.693-.33.215-.708.323-1.086.323zm2-12.892v7.564c2.095-.902 4.327-1.453 6.613-1.629v-3.794c0-.699.013-1.409.04-2.141z" fill="#3762cc"/><path d="m239.382 104.046c-.378 0-.755-.107-1.085-.32-2.726-1.76-5.881-2.69-9.124-2.69-.164.011-.257.017-.351.019-.559.027-1.056-.196-1.438-.572-.383-.376-.599-.89-.599-1.427v-5.751c0-1.951-.108-3.984-.32-6.044-.058-.563.125-1.125.504-1.545s.919-.66 1.485-.66h10.928c1.104 0 2 .896 2 2v14.991c0 .732-.4 1.406-1.043 1.756-.299.162-.629.243-.957.243zm-8.597-6.947c2.28.176 4.506.725 6.597 1.624v-9.667h-6.748c.1 1.441.151 2.864.151 4.249z" fill="#3762cc"/><path d="m101.422 210.673-6.276-22.331c3.481-6.712 5.373-14.381 5.144-22.516-.674-23.892-19.919-43.571-43.792-44.73-27.295-1.326-49.701 21.095-48.352 48.394 1.17 23.663 20.542 42.81 44.216 43.733 9.107.355 17.647-1.946 24.932-6.172l21.661 6.088c1.504.423 2.89-.963 2.467-2.466z" fill="#e0ebfc"/><path d="m74.277 164.173c1.459-2.241 2.17-5.012 1.765-7.968-.706-5.154-4.897-9.287-10.06-9.923-3.775-.465-7.248.878-9.674 3.278-.923.914-2.369.967-3.466.272-2.408-1.526-5.364-2.263-8.513-1.833-5.477.747-9.92 5.12-10.734 10.587-.756 5.079 1.513 9.688 5.273 12.312 1.074.749 1.472 2.172.989 3.389-.838 2.109-1.126 4.495-.672 6.991.937 5.147 5.1 9.253 10.259 10.117 4.058.68 7.821-.584 10.545-2.998.658-.583 1.53-.831 2.397-.681 1.829.316 3.79.243 5.824-.386 4.675-1.447 8.194-5.527 8.83-10.38.475-3.628-.596-6.995-2.638-9.557-.741-.932-.773-2.224-.125-3.22z" fill="#f9a7a7"/><path d="m64.502 163.977c-3.382 0-6.134-2.751-6.134-6.133s2.751-6.133 6.134-6.133c3.382 0 6.133 2.751 6.133 6.133 0 3.381-2.751 6.133-6.133 6.133z" fill="#f9cfcf"/><path d="m51.622 184.217c-3.382 0-6.134-2.751-6.134-6.133s2.751-6.133 6.134-6.133c3.382 0 6.133 2.751 6.133 6.133 0 3.381-2.751 6.133-6.133 6.133z" fill="#f9cfcf"/><path d="m44.722 163.353c-2.072 0-3.757-1.685-3.757-3.757 0-2.071 1.685-3.757 3.757-3.757 2.071 0 3.757 1.685 3.757 3.757-.001 2.072-1.686 3.757-3.757 3.757z" fill="#f9cfcf"/><path d="m54.179 215.26c-.631 0-1.262-.013-1.895-.037-24.653-.961-44.918-21.006-46.135-45.634-.671-13.574 4.438-26.857 14.016-36.443 9.579-9.587 22.855-14.713 36.43-14.047 24.919 1.21 44.991 21.71 45.694 46.671.223 7.888-1.507 15.748-5.006 22.782l6.064 21.581c.391 1.391 0 2.889-1.022 3.911-1.021 1.022-2.521 1.415-3.911 1.023l-20.858-5.862c-7.147 3.977-15.177 6.054-23.377 6.055zm.08-92.218c-11.695 0-22.987 4.646-31.265 12.931-8.782 8.79-13.466 20.97-12.851 33.419 1.116 22.577 19.694 40.953 42.296 41.834 8.376.324 16.629-1.715 23.851-5.903.467-.272 1.025-.342 1.544-.195l21.661 6.088-6.276-22.332c-.138-.489-.084-1.011.15-1.462 3.43-6.613 5.131-14.061 4.92-21.539-.645-22.885-19.045-41.68-41.89-42.789-.712-.035-1.428-.052-2.14-.052z" fill="#3762cc"/><g fill="#f9cfcf"><path d="m62.542 187.732c-.051-.008-.105-.009-.156-.018-.866-.15-1.739.098-2.397.682-1.384 1.227-3.038 2.152-4.861 2.681l-3.08 4.191-3.97 2.991c-.158.119-.353.171-.547.147l-7.528-.903c-1.096-.134-2.092.651-2.224 1.748-.131 1.097.651 2.092 1.748 2.224l7.528.903c.191.023.383.034.574.034 1.028 0 2.025-.332 2.857-.959l1.644-1.239.356 1.843c.388 2.012 2.013 3.545 4.044 3.817l2.341.312c.09.012.179.018.267.018.987 0 1.846-.73 1.98-1.736.146-1.095-.624-2.101-1.718-2.247l-2.34-.312c-.325-.043-.584-.288-.646-.609l-.797-4.132 6.894-9.38c.011-.018.019-.038.031-.056z"/><path d="m38.869 170.897c-.739-.516-1.418-1.111-2.03-1.768l-5.885-1.27c-.198-.043-.394-.096-.586-.159l-2.907-.956-4.858-5.519c-.27-.307-.356-.738-.224-1.124l.905-2.646c.358-1.045-.2-2.182-1.245-2.54-1.044-.359-2.182.2-2.54 1.245l-.906 2.646c-.595 1.741-.21 3.68 1.006 5.062l1.293 1.469c-2.421.191-4.732 1.333-6.307 3.289l-2.036 2.53c-.692.86-.556 2.119.304 2.812.37.297.813.442 1.252.442.585 0 1.165-.255 1.56-.746l2.036-2.53c1.289-1.603 3.468-2.249 5.422-1.605l5.994 1.97c.325.107.655.196.99.269l9.866 2.13c.272-1.12-.142-2.33-1.104-3.001z"/><path d="m51.853 149.268c.339.174.67.361.99.563 1.097.696 2.542.642 3.466-.272.085-.084.18-.156.267-.237-.018-.034-.03-.07-.05-.103l-5.04-8.148c-.739-1.194-1.1-2.562-1.081-3.937l6.231-1.578c1.071-.271 1.719-1.359 1.448-2.43s-1.359-1.718-2.43-1.448l-4.208 1.066.782-2.521c.327-1.055-.262-2.175-1.317-2.503-1.054-.326-2.175.263-2.503 1.317l-1.505 4.851c-.076.245-.128.493-.187.741-.186.351-.264.756-.214 1.171-.327 2.55.209 5.156 1.582 7.376z"/><path d="m89.89 162.952-5.77-2.524c-1.432-.626-3.027-.673-4.491-.13l-4.199 1.556c-.302.818-.684 1.599-1.153 2.319-.49.753-.59 1.675-.291 2.482l7.032-2.606c.49-.182 1.021-.166 1.497.043l5.771 2.525c1.013.441 2.191-.019 2.634-1.031s-.018-2.191-1.03-2.634z"/></g></svg>