<svg id="Capa_1" enable-background="new 0 0 512 512" height="512" viewBox="0 0 512 512" width="512" xmlns="http://www.w3.org/2000/svg"><g><g><path d="m121.706 67.493c.007 10.8 7.322 19.829 17.164 22.985v148.708c0 15.818 7.267 30.758 19.711 40.522l35.378 27.761h141.885l35.378-27.761c12.444-9.765 19.711-24.705 19.711-40.522v-151.605c0-42.21-34.218-76.428-76.428-76.428h-24.716c-4.465-6.729-12.24-11.153-20.888-11.153-15.489 0-106.862 0-122.351 0-13.47 0-24.836 10.723-24.845 24.193-.006 9.444 5.398 17.622 13.282 21.617.028.014.028.051 0 .065-7.883 3.997-13.287 12.174-13.281 21.618z" fill="#fe9901"/><g><path d="m199.265 277.014c-8.676-8.011-14.308-18.734-16.012-30.352-5.106-7.146-9.156-15.093-11.913-23.628h-17.184c-5.563 0-10.778-1.477-15.287-4.049v20.202c0 15.818 7.267 30.758 19.711 40.522l27.251 21.384z" fill="#fb8801"/></g><g><path d="m121.706 67.493c.007 10.8 7.322 19.829 17.164 22.985v63.293c4.509-2.572 9.724-4.05 15.287-4.05h12.995v-8.072c0-8.377 6.67-15.18 14.986-15.429v-32.249c0-1.999-1.16-3.812-2.971-4.658-8.307-3.881-14.186-12.138-14.192-21.82-.005-7.103 3.051-13.489 7.92-17.918 0-2.94 0-4.524 0-7.464-4.869-4.43-7.924-10.816-7.92-17.918.007-13.47 11.373-24.193 24.843-24.193h-43.268c-13.467 0-24.833 10.72-24.845 24.187-.008 9.447 5.397 17.626 13.281 21.623v.065c-7.882 3.997-13.286 12.174-13.28 21.618z" fill="#fb8801"/></g><path d="m396.764 306.469h-268.264c-3.516 19.692-19.377 35.765-39.625 38.908l-.847.131v59.837h8.953c2.289 0 4.151 1.862 4.151 4.151v101.504l1 1h335.839c5.69 0 10.302-4.612 10.302-10.302v-143.72c0-28.447-23.061-51.509-51.509-51.509z" fill="#eaf6ff"/><g><path d="m134.068 512c-5.69 0-10.302-4.612-10.302-10.302v-179.251c-7.226 12.557-19.876 21.612-34.737 23.919v57.98h7.953c2.845 0 5.151 2.306 5.151 5.151v102.503z" fill="#d8ecfe"/></g><g fill="#fff"><path d="m212.535 271.358c-2.588-1.428-5.099-2.978-7.516-4.656l-42.24 75.713c-1.136 2.036-.762 4.582.911 6.206l48.845 47.394z"/><path d="m367.023 342.414-42.24-75.713c-2.417 1.679-4.928 3.228-7.516 4.656v124.657l48.845-47.394c1.673-1.623 2.047-4.169.911-6.206z"/></g><g fill="#d8ecfe"><path d="m167.014 403.771c-1.64 1.51-2.123 3.903-1.197 5.93l46.718 102.299v-150.12z"/><path d="m362.788 403.771-45.521-41.891v150.12l46.719-102.298c.926-2.028.442-4.421-1.198-5.931z"/></g><g><path d="m316.267 386.443-51.366-47.9-51.366 47.9h-1v125.557h104.732v-125.557z" fill="#05e39c"/></g><g><path d="m212.535 388.743v-.001 123.258h21.461v-143.269z" fill="#0ed290"/></g><path d="m268.638 358.792c-.725 1.897-2.405 2.573-3.737 2.573s-3.012-.676-3.737-2.573l-3.763-9.854v163.062h15v-163.062z" fill="#07b27b"/><path d="m276.116 281.954h-22.43c-14.909 0-28.934-3.843-41.151-10.577v117.366l52.366-48.832 52.366 48.832v-117.366c-12.218 6.734-26.242 10.577-41.151 10.577z" fill="#07b27b"/><path d="m276.116 281.954h-22.43c-8.436 0-16.582-1.247-24.286-3.533l30.83 80.728c1.638 4.288 7.704 4.288 9.342 0l30.83-80.728c-7.704 2.286-15.851 3.533-24.286 3.533z" fill="#ffbd86"/><path d="m229.855 279.612 30.375 79.537c1.638 4.288 7.704 4.288 9.342 0l5.559-14.557-23.555-61.679c-7.518-.182-14.798-1.317-21.721-3.301z" fill="#f6a96c"/><g><path d="m168.151 196.418v-46.697h-13.994c-17.069 0-30.905 13.837-30.905 30.906v11.502c0 17.069 13.837 30.905 30.905 30.905h18.256c-2.753-8.383-4.262-17.324-4.262-26.616z" fill="#f6a96c"/><path d="m375.645 149.722h-13.995v46.697c0 9.292-1.509 18.233-4.262 26.616h18.256c17.069 0 30.905-13.837 30.905-30.905v-11.502c.002-17.069-13.835-30.906-30.904-30.906z" fill="#ffbd86"/></g><path d="m331.746 87.454h-36.957c-5.714 0-10.961 3.153-13.643 8.197l-7.526 14.152c-5.365 10.089-15.86 16.395-27.287 16.395h-63.729c-8.534 0-15.453 6.918-15.453 15.453v54.769c0 29.349 14.625 55.268 36.969 70.915h121.561c22.345-15.647 36.969-41.566 36.969-70.915v-27.452-25.66-24.948c.001-17.069-13.836-30.906-30.904-30.906z" fill="#fed2a4"/><g><g><path d="m199.204 196.418v-54.768c0-8.534 6.918-15.453 15.453-15.453h-32.053c-8.534 0-15.453 6.918-15.453 15.453v54.768c0 47.792 38.743 86.535 86.535 86.535h22.43c1.615 0 3.218-.052 4.812-.14-45.553-2.497-81.724-40.218-81.724-86.395z" fill="#ffbd86"/></g></g><g><g><path d="m218.543 184.558c-4.142 0-7.5-3.358-7.5-7.5v-22.11c0-4.142 3.358-7.5 7.5-7.5s7.5 3.358 7.5 7.5v22.11c0 4.142-3.358 7.5-7.5 7.5z" fill="#bb5d4c"/></g><g><path d="m311.259 184.558c-4.142 0-7.5-3.358-7.5-7.5v-22.11c0-4.142 3.358-7.5 7.5-7.5s7.5 3.358 7.5 7.5v22.11c0 4.142-3.358 7.5-7.5 7.5z" fill="#bb5d4c"/></g></g><path d="m261.632 187.096c1.046-.408 2.146-.615 3.269-.615s2.223.207 3.269.615l4.231 1.649v-23.401c0-4.142-3.358-7.5-7.5-7.5s-7.5 3.358-7.5 7.5v23.401z" fill="#bb5d4c"/></g><g><path d="m362.111 448.045 6.73 63.955h23.84c.633-32.743 9.828-58.72 21.081-58.72s20.448 25.978 21.081 58.72h12.229c6.6 0 12.135-4.983 12.825-11.547l5.515-52.408c8.929-7.615 14.401-19.164 13.706-31.972-1.08-19.905-17.352-36.023-37.266-36.926-10.822-.491-20.73 3.416-28.091 10.083-7.361-6.667-17.269-10.574-28.091-10.083-19.914.903-36.186 17.02-37.266 36.926-.694 12.808 4.778 24.357 13.707 31.972z" fill="#fed2a4"/></g><g><g><path d="m394.254 450.011c-.128-1.215-.679-2.349-1.571-3.184-8.118-7.6-13.002-18.611-12.343-30.753.809-14.909 10.141-27.692 23.142-33.55-5.467-2.451-11.594-3.695-18.046-3.365-19.851 1.016-35.999 17.145-37.037 36.995-.668 12.775 4.8 24.292 13.711 31.891l6.73 63.955h23.84c.253-13.069 1.873-25.053 4.44-34.744z" fill="#ffbd86"/></g></g><g><path d="m74.029 345.35v59.996h15v-59.996c-2.444.388-4.948.594-7.5.594s-5.056-.206-7.5-.594z" fill="#cbc4cc"/></g><g><circle cx="81.529" cy="298.237" fill="#8ac9fe" r="41.207"/></g><g><path d="m72.257 298.237c0-17.096 10.412-31.759 25.239-37.997-4.911-2.066-10.306-3.21-15.968-3.21-22.758 0-41.207 18.449-41.207 41.207s18.449 41.207 41.207 41.207c5.662 0 11.057-1.144 15.968-3.21-14.827-6.238-25.239-20.901-25.239-37.997z" fill="#60b7ff"/></g><g><path d="m81.529 346.945c-26.857 0-48.708-21.85-48.708-48.708 0-26.857 21.85-48.707 48.708-48.707 26.857 0 48.707 21.85 48.707 48.707 0 26.858-21.85 48.708-48.707 48.708zm0-82.415c-18.586 0-33.708 15.121-33.708 33.707s15.121 33.708 33.708 33.708c18.586 0 33.707-15.121 33.707-33.708 0-18.586-15.121-33.707-33.707-33.707z" fill="#26a6fe"/></g><g><path d="m102.132 512h-25.754c-8.534 0-15.453-6.918-15.453-15.453v-87.05c0-2.845 2.306-5.151 5.151-5.151h30.905c2.845 0 5.151 2.306 5.151 5.151z" fill="#b5adb6"/></g><g><path d="m82.559 496.547v-87.05c0-2.845 2.306-5.151 5.151-5.151h-21.634c-2.845 0-5.151 2.306-5.151 5.151v87.05c0 8.534 6.918 15.453 15.453 15.453h21.634c-8.535 0-15.453-6.918-15.453-15.453z" fill="#a79ba7"/></g><g><path d="m362.651 143.307-44.034 62.382-50.084-19.524c-2.336-.911-4.928-.911-7.264 0l-57.149 22.278v58.891c14.041 9.833 31.123 15.62 49.566 15.62h22.429c18.443 0 35.525-5.788 49.566-15.62v-45.645l36.969-52.722v-25.66z" fill="#f3f0f3"/><path d="m268.533 186.165c-2.336-.911-4.928-.911-7.264 0l-49.829 19.425-44.289-62.637v26.016l36.969 52.736v45.629c7.466 5.228 15.788 9.309 24.724 11.983v-49.378c0-4.177 2.522-7.941 6.386-9.529l58.976-24.237zm-64.413 30.884c-.234-.688-.261-1.094 0-1.102z" fill="#e2dee2"/></g></g></svg>